# xmcd
#
# Track frame offsets:
#  150
#  32595
#  49164
#  63813
#  73419
#  90853
#  104435
#  120035
#  129741
#  147635
#  161397
#  174681
#  187417
#  198125
#  209719
#  217885
#  233806
#  241909
#
# Disc length: 3360 seconds
#
# Revision: 0
# Processed by: cddbd v1.4PL0 Copyright (c) Steve Scherf et al.
# Submitted via: AltoMP3_Maker 3.0
#
DISCID=060d1e12
DTITLE=Lead Belly - Absolutely the Best Volume 2 - In Concert
DYEAR=1900
DGENRE=
TTITLE0=Goodnight Irene
TTITLE1=Ho-Day - Ain't Going Down to the Well No More
TTITLE2=Rock Island Line
TTITLE3=Go Down Old Hannah
TTITLE4=Shine On Me
TTITLE5=What Can I Do To Change Your Mind
TTITLE6=Skip To My Lou
TTITLE7=Mary And Martha
TTITLE8=C'est Bon, Les Oeufs - Scrambled Egg Song
TTITLE9=Whoa Back Buck
TTITLE10=John Henry
TTITLE11=Backwater Blues
TTITLE12=Ella Lousie
TTITLE13=Don't Want No More Of Army Life
TTITLE14=Relax Your Mind
TTITLE15=Goodnight Irene
TTITLE16=Old Ship Of Zion
TTITLE17=I Will Be So Glad When I Get Home
EXTD=
EXTT0=
EXTT1=
EXTT2=
EXTT3=
EXTT4=
EXTT5=
EXTT6=
EXTT7=
EXTT8=
EXTT9=
EXTT10=
EXTT11=
EXTT12=
EXTT13=
EXTT14=
EXTT15=
EXTT16=
EXTT17=
PLAYORDER=
